<?xml version="1.0" standalone="no"?>
<!DOCTYPE svg PUBLIC "-//W3C//DTD SVG 20010904//EN"
 "http://www.w3.org/TR/2001/REC-SVG-20010904/DTD/svg10.dtd">
<svg version="1.0" xmlns="http://www.w3.org/2000/svg"
 width="135.000000pt" height="73.000000pt" viewBox="0 0 135.000000 73.000000"
 preserveAspectRatio="xMidYMid meet">
<metadata>
Created by potrace 1.15, written by Peter Selinger 2001-2017
</metadata>
<g transform="translate(0.000000,73.000000) scale(0.100000,-0.100000)"
fill="#000000" stroke="none">
<path d="M367 693 c-4 -3 -7 -17 -7 -30 0 -21 -4 -23 -51 -23 -49 0 -51 1 -47
25 3 14 1 25 -3 25 -5 0 -9 -11 -9 -24 0 -26 -20 -39 -45 -30 -8 4 -15 1 -15
-5 0 -6 13 -11 30 -11 l30 0 -1 -66 -1 -66 -59 6 c-53 5 -59 4 -59 -13 0 -11
-3 -26 -6 -34 -3 -10 2 -18 17 -22 20 -7 20 -8 6 -17 -21 -11 -23 -66 -3 -74
8 -3 13 -11 10 -18 -7 -17 42 -56 71 -56 25 0 25 -1 25 -89 l0 -90 -32 -4 -33
-4 33 -1 c29 -2 32 -5 33 -34 l1 -33 7 30 c6 28 10 30 54 33 46 3 47 2 54 -30
l7 -33 6 30 c5 30 6 30 65 28 33 -1 84 -2 113 -3 33 0 51 -4 47 -10 -3 -5 -1
-18 4 -27 9 -15 10 -14 11 10 0 28 0 28 63 25 52 -3 62 -6 61 -20 -1 -10 3
-18 8 -18 6 0 8 10 6 23 -4 22 -3 22 101 21 58 -1 112 -2 119 -3 6 -1 12 -11
13 -23 1 -22 1 -22 8 2 6 22 12 25 51 25 42 0 45 -2 50 -30 4 -20 8 -26 13
-17 5 7 5 21 2 32 -6 17 -1 20 32 21 l38 2 -35 6 -35 6 0 85 0 85 35 5 c53 9
88 47 95 106 7 47 5 51 -19 62 -14 6 -34 8 -43 5 -16 -6 -16 -5 -4 10 7 9 22
17 33 17 14 0 18 5 14 16 -3 9 -6 22 -6 31 0 12 -11 14 -53 11 -48 -3 -53 -1
-51 17 1 11 3 35 3 53 1 27 5 32 26 32 14 0 25 4 25 8 0 5 -13 7 -29 6 -27 -2
-28 -1 -21 32 5 19 4 34 -1 34 -5 0 -9 -11 -9 -24 0 -14 -5 -28 -11 -32 -9 -5
-74 -6 -293 -4 l-48 0 6 30 c3 19 2 29 -4 25 -6 -3 -10 -17 -10 -31 0 -23 -3
-24 -66 -24 l-66 0 4 30 c3 17 1 30 -4 30 -4 0 -9 -6 -9 -12 -1 -7 -2 -20 -3
-28 -1 -18 -81 -27 -171 -20 -58 5 -60 6 -57 33 3 28 0 32 -11 20z m386 -100
c-1 -48 -1 -48 5 -8 4 23 12 40 20 39 6 -1 28 -2 47 -2 33 -2 35 -4 37 -39 l1
-38 4 38 4 37 60 0 59 0 2 -37 1 -38 4 38 4 38 52 -3 52 -3 -1 -45 -1 -45 -52
-5 c-39 -4 -50 -3 -47 7 3 7 1 13 -4 13 -6 0 -10 -7 -10 -15 0 -12 -13 -15
-61 -15 -50 0 -60 3 -55 15 3 8 1 15 -4 15 -6 0 -10 -6 -10 -14 0 -8 -10 -17
-22 -19 -18 -4 -16 -5 7 -5 65 -2 142 -14 175 -28 57 -24 64 -30 78 -57 7 -15
18 -27 25 -28 7 0 2 -4 -11 -10 -13 -5 -21 -13 -18 -17 6 -10 -56 -42 -79 -42
-8 0 -15 -4 -15 -10 0 -5 -19 -11 -42 -11 -39 -1 -40 -2 -13 -8 38 -9 -232
-21 -462 -21 -149 0 -172 2 -167 15 5 12 -2 15 -31 15 -21 0 -34 4 -30 10 4 6
-5 10 -19 10 -14 0 -26 5 -26 10 0 6 -9 10 -21 10 -11 0 -18 4 -15 9 3 5 16 7
29 5 15 -3 17 -2 7 3 -8 5 -16 16 -18 26 -2 12 4 17 21 17 14 0 30 7 38 16 11
13 9 14 -16 8 -20 -5 -26 -4 -21 5 4 6 12 9 17 6 5 -4 9 -2 9 3 0 14 51 33 93
35 19 1 33 5 32 8 -2 3 22 4 53 3 42 -1 45 0 12 3 -24 2 -50 9 -57 15 -9 7
-13 7 -13 -1 0 -7 -20 -11 -50 -11 l-50 0 0 65 0 64 115 0 115 0 2 -37 1 -37
4 38 c4 36 6 37 44 39 21 0 45 1 52 2 8 1 12 -16 12 -56 0 -31 4 -60 8 -65 5
-4 8 3 7 17 -1 14 -2 43 -1 65 l1 40 49 -3 c27 -2 58 1 68 7 10 6 18 11 18 11
0 0 -1 -21 -2 -47z m-143 -355 l9 -23 0 23 c1 20 6 22 61 22 54 0 62 -3 70
-22 l9 -23 0 23 c1 20 6 22 51 22 43 0 50 -3 50 -19 0 -16 -8 -21 -47 -23 -29
-3 -11 -5 42 -6 107 -3 126 -5 143 -16 25 -15 11 -23 -40 -24 -29 0 -82 -5
-118 -10 -57 -8 -60 -10 -22 -11 41 -1 42 -2 42 -35 0 -33 -1 -34 -46 -38 -25
-2 -47 -1 -50 1 -2 2 -4 22 -4 43 0 21 -4 38 -10 38 -5 0 -10 -18 -10 -40 l0
-40 -60 0 -60 0 -2 38 -1 37 -4 -37 -4 -38 -50 0 -49 0 0 35 c0 41 -2 42 -93
48 -37 2 -70 7 -73 9 -12 13 9 35 34 33 15 -1 38 2 52 6 22 6 20 7 -12 8 -27
1 -38 6 -38 16 0 12 13 15 55 15 42 0 55 -3 55 -15 0 -8 4 -15 10 -15 5 0 7 6
4 14 -4 10 3 16 23 19 63 9 74 7 83 -15z"/>
<path d="M426 453 c-4 -5 -38 -10 -74 -13 l-67 -5 0 -45 0 -45 43 -3 c33 -2
42 0 42 12 0 9 9 16 20 16 11 0 20 5 20 10 0 6 6 10 14 10 9 0 12 -7 9 -20 -6
-22 28 -43 35 -21 3 9 7 9 17 1 8 -7 42 -10 82 -8 l68 3 6 37 c3 21 3 41 0 47
-3 5 -44 9 -90 9 -46 1 -89 6 -94 11 -13 13 -21 14 -31 4z"/>
<path d="M763 433 c-20 -7 -17 -102 3 -110 10 -4 22 0 29 10 7 9 15 14 18 11
3 -4 12 5 18 20 14 31 29 34 29 7 0 -24 10 -31 42 -31 12 1 53 1 90 1 69 0 81
6 91 47 12 49 6 51 -156 51 -84 -1 -158 -3 -164 -6z"/>
</g>
</svg>
